# xmcd CD database file
#
# Track frame offsets:
#	150
#	9488
#	17846
#	26623
#	37812
#	55303
#	67646
#	79321
#	92000
#	106159
#	121472
#	130550
#	140343
#	151263
#	164412
#	182425
#	192556
#	203691
#	213774
#	224728
#	239669
#	253579
#	262783
#	275517
#	290369
#
# Disc length: 4144 seconds
#
# Revision: 0
# Processed by: cddbd v1.5.2PL0 Copyright (c) Steve Scherf et al.
# Submitted via: ACXtractor (MTCDDB.DLL V2003.12.21)
#
DISCID=59102e19
DTITLE=Mal Coad -  The First 25 Years
DYEAR=2005
DGENRE=Country
TTITLE0=The Northern Queen
TTITLE1=If You Love Me
TTITLE2=Parachilna Plains
TTITLE3=Old Home Farm
TTITLE4=The Ghan
TTITLE5=The Gums Outside Grannies Door
TTITLE6=Gunna
TTITLE7=Dogs on the Ten Mile
TTITLE8=Tarlee
TTITLE9=Battered Old Bible of Mine
TTITLE10=Willmington Rodeo
TTITLE11=Five Mile Yard
TTITLE12=If you Break my Heart Again
TTITLE13=Harry the Breaker
TTITLE14=Eighteen Wheels
TTITLE15=Our Anniversary
TTITLE16=The Bush Shindig
TTITLE17=Swaggy Once Waltzed Matilda
TTITLE18=Willcannia on the Darling
TTITLE19=What a Friend
TTITLE20=Not Far From Gundagai
TTITLE21=Across the Years
TTITLE22=Take this Hand
TTITLE23=Take the Change from the Bar
TTITLE24=Jungles of Vietnam
EXTD=ID3G:   2 YEAR: 2005
EXTT0=
EXTT1=
EXTT2=
EXTT3=
EXTT4=
EXTT5=
EXTT6=
EXTT7=
EXTT8=
EXTT9=
EXTT10=
EXTT11=
EXTT12=
EXTT13=
EXTT14=
EXTT15=
EXTT16=
EXTT17=
EXTT18=
EXTT19=
EXTT20=
EXTT21=
EXTT22=
EXTT23=
EXTT24=
PLAYORDER=
